<svg width="16" height="18" viewBox="0 0 16 18" fill="none" xmlns="http://www.w3.org/2000/svg">
<path d="M15.4513 15.0251L14.5618 6.38817C14.5251 6.03003 14.2233 5.75781 13.8633 5.75781H2.15983C1.80078 5.75781 1.49928 6.02911 1.4616 6.3863L0.548236 15.0275C0.472861 15.7817 0.724263 16.5396 1.23779 17.1072C1.75135 17.6744 2.47979 18 3.23653 18H12.7868C13.5401 18 14.2617 17.6809 14.7659 17.1241C15.2771 16.5607 15.5269 15.7966 15.4513 15.0251ZM13.7259 16.181C13.4834 16.4483 13.1499 16.5955 12.7868 16.5955H3.23677C2.87607 16.5955 2.52708 16.4384 2.27919 16.1646C2.0313 15.8907 1.90984 15.5272 1.94542 15.1712L2.7918 7.16248H13.2297L14.0541 15.1661C14.0915 15.546 13.9747 15.9064 13.7259 16.181Z" fill="black"/>
<path d="M8.12878 0C5.90887 0 4.10275 1.80608 4.10275 4.02602V6.46035H5.50718V4.02602C5.50718 2.5804 6.68316 1.40442 8.12878 1.40442C9.57441 1.40442 10.7506 2.5804 10.7506 4.02602V6.46035H12.1548V4.02602C12.1548 1.80608 10.3487 0 8.12878 0Z" fill="black"/>
</svg>
